HIERARCHY
ROOT hip
{
  OFFSET 0 0 0
  CHANNELS 6 Xposition Yposition Zposition Zrotation Yrotation Xrotation
  JOINT abdomen
  {
    OFFSET 0 20.6881 -0.73152
    CHANNELS 3 Zrotation Xrotation Yrotation
    JOINT chest
    {
      OFFSET 0 11.7043 -0.48768
      CHANNELS 3 Zrotation Xrotation Yrotation
      JOINT neck
      {
        OFFSET 0 22.1894 -2.19456
        CHANNELS 3 Zrotation Xrotation Yrotation
        JOINT head
        {
          OFFSET -0.24384 7.07133 1.2192
          CHANNELS 3 Zrotation Xrotation Yrotation
          JOINT leftEye
          {
            OFFSET 4.14528 8.04674 8.04672
            CHANNELS 3 Zrotation Xrotation Yrotation
            End Site
            {
              OFFSET 1 0 0
            }
          }
          JOINT rightEye
          {
            OFFSET -3.6576 8.04674 8.04672
            CHANNELS 3 Zrotation Xrotation Yrotation
            End Site
            {
              OFFSET 1 0 0
            }
          }
        }
      }
      JOINT rCollar
      {
        OFFSET -2.68224 19.2634 -4.8768
        CHANNELS 3 Zrotation Xrotation Yrotation
        JOINT rShldr
        {
          OFFSET -8.77824 -1.95073 1.46304
          CHANNELS 3 Zrotation Xrotation Yrotation
          JOINT rForeArm
          {
            OFFSET -28.1742 -1.7115 0.48768
            CHANNELS 3 Zrotation Xrotation Yrotation
            JOINT rHand
            {
              OFFSET -22.5879 0.773209 7.07136
              CHANNELS 3 Zrotation Xrotation Yrotation
              JOINT rThumb1
              {
                OFFSET -1.2192 -0.487915 3.41376
                CHANNELS 3 Zrotation Xrotation Yrotation
                JOINT rThumb2
                {
                  OFFSET -3.37035 -0.52449 3.41376
                  CHANNELS 3 Zrotation Xrotation Yrotation
                  End Site
                  {
                    OFFSET -1.78271 -1.18214 1.43049
                  }
                }
              }
              JOINT rIndex1
              {
                OFFSET -7.75947 0.938293 5.60832
                CHANNELS 3 Zrotation Xrotation Yrotation
                JOINT rIndex2
                {
                  OFFSET -2.54057 -0.884171 1.56538
                  CHANNELS 3 Zrotation Xrotation Yrotation
                  End Site
                  {
                    OFFSET -1.62519 -0.234802 1.16502
                  }
                }
              }
              JOINT rMid1
              {
                OFFSET -8.24714 1.18213 3.41376
                CHANNELS 3 Zrotation Xrotation Yrotation
                JOINT rMid2
                {
                  OFFSET -3.10165 -0.590103 1.0647
                  CHANNELS 3 Zrotation Xrotation Yrotation
                  End Site
                  {
                    OFFSET -2.48547 -0.328903 0.83742
                  }
                }
              }
              JOINT rRing1
              {
                OFFSET -8.82822 0.546677 1.51678
                CHANNELS 3 Zrotation Xrotation Yrotation
                JOINT rRing2
                {
                  OFFSET -2.60934 -0.819778 -0.0198488
                  CHANNELS 3 Zrotation Xrotation Yrotation
                  End Site
                  {
                    OFFSET -2.33842 -0.294052 0.168128
                  }
                }
              }
              JOINT rPinky1
              {
                OFFSET -8.27202 -0.0477905 -0.4584
                CHANNELS 3 Zrotation Xrotation Yrotation
                JOINT rPinky2
                {
                  OFFSET -1.82734 -0.647385 -0.700984
                  CHANNELS 3 Zrotation Xrotation Yrotation
                  End Site
                  {
                    OFFSET -1.69225 -0.51767 -0.607171
                  }
                }
              }
            }
          }
        }
      }
      JOINT lCollar
      {
        OFFSET 2.68224 19.2634 -4.8768
        CHANNELS 3 Zrotation Xrotation Yrotation
        JOINT lShldr
        {
          OFFSET 8.77824 -1.95073 1.46304
          CHANNELS 3 Zrotation Xrotation Yrotation
          JOINT lForeArm
          {
            OFFSET 28.1742 -1.7115 0.48768
            CHANNELS 3 Zrotation Xrotation Yrotation
            JOINT lHand
            {
              OFFSET 22.5879 0.773209 7.07136
              CHANNELS 3 Zrotation Xrotation Yrotation
              JOINT lThumb1
              {
                OFFSET 1.2192 -0.487915 3.41376
                CHANNELS 3 Zrotation Xrotation Yrotation
                JOINT lThumb2
                {
                  OFFSET 3.37035 -0.52449 3.41376
                  CHANNELS 3 Zrotation Xrotation Yrotation
                  End Site
                  {
                    OFFSET 1.78271 -1.18214 1.43049
                  }
                }
              }
              JOINT lIndex1
              {
                OFFSET 7.75947 0.938293 5.60832
                CHANNELS 3 Zrotation Xrotation Yrotation
                JOINT lIndex2
                {
                  OFFSET 2.54057 -0.884171 1.56538
                  CHANNELS 3 Zrotation Xrotation Yrotation
                  End Site
                  {
                    OFFSET 1.62519 -0.234802 1.16502
                  }
                }
              }
              JOINT lMid1
              {
                OFFSET 8.24714 1.18213 3.41376
                CHANNELS 3 Zrotation Xrotation Yrotation
                JOINT lMid2
                {
                  OFFSET 3.10165 -0.590103 1.0647
                  CHANNELS 3 Zrotation Xrotation Yrotation
                  End Site
                  {
                    OFFSET 2.48547 -0.328903 0.83742
                  }
                }
              }
              JOINT lRing1
              {
                OFFSET 8.82822 0.546677 1.51678
                CHANNELS 3 Zrotation Xrotation Yrotation
                JOINT lRing2
                {
                  OFFSET 2.60934 -0.819778 -0.0198488
                  CHANNELS 3 Zrotation Xrotation Yrotation
                  End Site
                  {
                    OFFSET 2.33842 -0.294052 0.168128
                  }
                }
              }
              JOINT lPinky1
              {
                OFFSET 8.27202 -0.0477905 -0.4584
                CHANNELS 3 Zrotation Xrotation Yrotation
                JOINT lPinky2
                {
                  OFFSET 1.82734 -0.647385 -0.700984
                  CHANNELS 3 Zrotation Xrotation Yrotation
                  End Site
                  {
                    OFFSET 1.69225 -0.51767 -0.607171
                  }
                }
              }
            }
          }
        }
      }
    }
  }
  JOINT rButtock
  {
    OFFSET -8.77824 4.35084 1.2192
    CHANNELS 3 Zrotation Xrotation Yrotation
    JOINT rThigh
    {
      OFFSET 0 -1.70687 -2.19456
      CHANNELS 3 Zrotation Xrotation Yrotation
      JOINT rShin
      {
        OFFSET 0 -36.8199 0.73152
        CHANNELS 3 Zrotation Xrotation Yrotation
        JOINT rFoot
        {
          OFFSET 0.73152 -45.1104 -5.12064
          CHANNELS 3 Zrotation Xrotation Yrotation
          End Site
          {
            OFFSET -1.1221 -3.69964 12.103
          }
        }
      }
    }
  }
  JOINT lButtock
  {
    OFFSET 8.77824 4.35084 1.2192
    CHANNELS 3 Zrotation Xrotation Yrotation
    JOINT lThigh
    {
      OFFSET 0 -1.70687 -2.19456
      CHANNELS 3 Zrotation Xrotation Yrotation
      JOINT lShin
      {
        OFFSET 0 -36.8199 0.73152
        CHANNELS 3 Zrotation Xrotation Yrotation
        JOINT lFoot
        {
          OFFSET -0.73152 -45.1104 -5.12064
          CHANNELS 3 Zrotation Xrotation Yrotation
          End Site
          {
            OFFSET 1.1221 -3.69964 12.103
          }
        }
      }
    }
  }
}
MOTION
Frames:	4
Frame Time:	0.03333
-2.8991000088353758 56.79460167884827 -15.767599936771148 -151.7159881591797 75.20610809326172 -137.61900329589844 6.247951984405518 19.812788009643555 11.747309684753418 -3.762974262237549 -13.774495124816895 3.0753519535064697 0.555444061756134 13.655594825744629 12.271705627441406 -1.1166163682937622 -29.90469741821289 24.256399154663086 -0.0 0.0 -0.0 -0.0 0.0 -0.0 -0.0 0.0 -0.0 37.76250457763672 52.7717170715332 12.33110523223877 -28.124292373657227 -39.701595306396484 83.38760375976562 -0.046247102320194244 6.125608921051025 0.8643023371696472 -0.0 0.0 -0.0 -0.0 0.0 -0.0 -0.0 0.0 -0.0 7.73087739944458 5.47489595413208 0.41732463240623474 -0.0 0.0 -0.0 2.9054994583129883 0.9650753736495972 0.10300876200199127 -0.0 0.0 -0.0 10.278595924377441 0.7317469120025635 0.026285577565431595 -0.0 0.0 -0.0 2.221662759780884 -0.7335850596427917 -0.20831839740276337 -0.0 0.0 -0.0 -53.36317443847656 18.929086685180664 -34.49245834350586 28.15219497680664 -39.516700744628906 -83.06089782714844 2.371554374694824 -39.48553466796875 6.642930030822754 -0.0 0.0 -0.0 -0.0 0.0 -0.0 -0.0 0.0 -0.0 -7.73087739944458 5.47489595413208 -0.41732463240623474 -0.0 0.0 -0.0 -2.9054994583129883 0.9650753736495972 -0.10300876200199127 -0.0 0.0 -0.0 -10.278595924377441 0.7317469120025635 -0.026285577565431595 -0.0 0.0 -0.0 -2.221662759780884 -0.7335850596427917 0.20831839740276337 -0.0 0.0 -0.0 -46.1266975402832 -41.1641960144043 -33.324195861816406 -1.5061451196670532 68.37821197509766 3.011939525604248 -0.2675262689590454 2.838165521621704 -14.027791976928711 -0.0 0.0 -0.0 65.88398742675781 -68.9032211303711 54.840492248535156 11.856881141662598 85.52201080322266 -12.87492847442627 0.9583085775375366 -20.742504119873047 3.733497381210327
-2.9437000079269637 58.49199891090393 -17.29549990614032 -153.29100036621094 76.08409881591797 -138.86996459960938 6.368409156799316 19.972694396972656 11.151002883911133 -3.592977285385132 -13.921388626098633 2.9510385990142822 0.5253295302391052 13.552486419677734 12.360895156860352 -1.3693692684173584 -29.80009651184082 24.373804092407227 -0.0 0.0 -0.0 -0.0 0.0 -0.0 -0.0 0.0 -0.0 38.91299819946289 52.30630111694336 10.19520378112793 -28.15049934387207 -39.53270721435547 83.08649444580078 -0.04424748197197914 5.9925360679626465 0.8453303575515747 -0.0 0.0 -0.0 -0.0 0.0 -0.0 -0.0 0.0 -0.0 7.73087739944458 5.47489595413208 0.41732463240623474 -0.0 0.0 -0.0 2.9054994583129883 0.9650753736495972 0.10300876200199127 -0.0 0.0 -0.0 10.278595924377441 0.7317469120025635 0.026285577565431595 -0.0 0.0 -0.0 2.221662759780884 -0.7335850596427917 -0.20831839740276337 -0.0 0.0 -0.0 -53.45131301879883 18.84884262084961 -34.4995231628418 28.075897216796875 -39.96889877319336 -83.88229370117188 2.494361162185669 -40.32902908325195 6.8428850173950195 -0.0 0.0 -0.0 -0.0 0.0 -0.0 -0.0 0.0 -0.0 -7.73087739944458 5.47489595413208 -0.41732463240623474 -0.0 0.0 -0.0 -2.9054994583129883 0.9650753736495972 -0.10300876200199127 -0.0 0.0 -0.0 -10.278595924377441 0.7317469120025635 -0.026285577565431595 -0.0 0.0 -0.0 -2.221662759780884 -0.7335850596427917 0.20831839740276337 -0.0 0.0 -0.0 -44.39360046386719 -43.2455940246582 -30.75030517578125 -1.4905661344528198 67.80862426757812 2.8181703090667725 0.08295835554599762 4.836588382720947 -17.59508514404297 -0.0 0.0 -0.0 56.49318313598633 -68.6930160522461 47.42416763305664 7.053509712219238 82.91738891601562 -8.08974552154541 1.6122736930847168 -20.203500747680664 5.047146320343018
-2.949000007902214 59.90750193595886 -18.88459996898746 -154.89698791503906 77.2681884765625 -140.27200317382812 6.242513656616211 20.077600479125977 10.731900215148926 -3.5744822025299072 -14.009686470031738 2.851353883743286 0.4805973172187805 13.57331371307373 12.35240364074707 -1.5093576908111572 -29.670305252075195 24.314592361450195 -0.0 0.0 -0.0 -0.0 0.0 -0.0 -0.0 0.0 -0.0 40.05049514770508 51.858795166015625 8.075652122497559 -28.163196563720703 -39.44120407104492 82.92918395996094 -0.037108249962329865 6.7976579666137695 0.9584845304489136 -0.0 0.0 -0.0 -0.0 0.0 -0.0 -0.0 0.0 -0.0 7.73087739944458 5.47489595413208 0.41732463240623474 -0.0 0.0 -0.0 2.9054994583129883 0.9650753736495972 0.10300876200199127 -0.0 0.0 -0.0 10.278595924377441 0.7317469120025635 0.026285577565431595 -0.0 0.0 -0.0 2.221662759780884 -0.7335850596427917 -0.20831839740276337 -0.0 0.0 -0.0 -53.27400588989258 18.685565948486328 -34.335514068603516 27.952699661254883 -40.68079376220703 -85.13150787353516 2.557307243347168 -40.57080841064453 6.911471366882324 -0.0 0.0 -0.0 -0.0 0.0 -0.0 -0.0 0.0 -0.0 -7.73087739944458 5.47489595413208 -0.41732463240623474 -0.0 0.0 -0.0 -2.9054994583129883 0.9650753736495972 -0.10300876200199127 -0.0 0.0 -0.0 -10.278595924377441 0.7317469120025635 -0.026285577565431595 -0.0 0.0 -0.0 -2.221662759780884 -0.7335850596427917 0.20831839740276337 -0.0 0.0 -0.0 -43.52681350708008 -45.75100326538086 -30.581811904907227 -1.7264436483383179 69.31822967529297 2.906967878341675 -0.22876890003681183 4.191318988800049 -17.185495376586914 -0.0 0.0 -0.0 47.87666320800781 -68.08201599121094 40.908058166503906 5.018695831298828 80.554931640625 -6.062082767486572 2.1757986545562744 -19.688899993896484 6.224772930145264
-2.9530000078011653 61.11540198326111 -20.653999984460825 -157.0059814453125 78.65878295898438 -142.29498291015625 5.8681488037109375 20.128402709960938 10.490700721740723 -3.707069158554077 -14.039594650268555 2.776470422744751 0.4217216968536377 13.718104362487793 12.246091842651367 -1.5350319147109985 -29.514802932739258 24.07950210571289 -0.0 0.0 -0.0 -0.0 0.0 -0.0 -0.0 0.0 -0.0 41.18170166015625 51.4296989440918 5.966954708099365 -28.16399574279785 -39.428707122802734 82.91320037841797 -0.09029457718133926 8.540295600891113 1.209261417388916 -0.0 0.0 -0.0 -0.0 0.0 -0.0 -0.0 0.0 -0.0 7.73087739944458 5.47489595413208 0.41732463240623474 -0.0 0.0 -0.0 2.9054994583129883 0.9650753736495972 0.10300876200199127 -0.0 0.0 -0.0 10.278595924377441 0.7317469120025635 0.026285577565431595 -0.0 0.0 -0.0 2.221662759780884 -0.7335850596427917 -0.20831839740276337 -0.0 0.0 -0.0 -52.828697204589844 18.437097549438477 -34.00170135498047 27.737794876098633 -41.61949920654297 -86.87480163574219 2.4711897373199463 -40.21592712402344 6.813557147979736 -0.0 0.0 -0.0 -0.0 0.0 -0.0 -0.0 0.0 -0.0 -7.73087739944458 5.47489595413208 -0.41732463240623474 -0.0 0.0 -0.0 -2.9054994583129883 0.9650753736495972 -0.10300876200199127 -0.0 0.0 -0.0 -10.278595924377441 0.7317469120025635 -0.026285577565431595 -0.0 0.0 -0.0 -2.221662759780884 -0.7335850596427917 0.20831839740276337 -0.0 0.0 -0.0 -43.96449279785156 -48.622093200683594 -33.18840408325195 -2.322439193725586 72.90654754638672 3.38991117477417 -1.0097216367721558 0.8449029326438904 -12.834894180297852 -0.0 0.0 -0.0 40.17512130737305 -67.17850494384766 35.44973373413086 3.9262003898620605 78.45077514648438 -4.965461254119873 2.653899669647217 -19.201385498046875 7.2683515548706055
